<mxfile host="app.diagrams.net" modified="2022-03-01T11:47:38.018Z" agent="5.0 (Macintosh; Intel Mac OS X 10_15_7) AppleWebKit/537.36 (KHTML, like Gecko) Chrome/97.0.4692.99 Safari/537.36" etag="blVmrsJtzdetiL6eYpp1" version="15.8.9" type="github">
  <diagram id="bXmu-x-yeNZL8xYzMDwP" name="Page-1">
    <mxGraphModel dx="2253" dy="688" grid="1" gridSize="10" guides="1" tooltips="1" connect="1" arrows="1" fold="1" page="1" pageScale="1" pageWidth="827" pageHeight="1169" math="0" shadow="0">
      <root>
        <mxCell id="0" />
        <mxCell id="1" parent="0" />
        <mxCell id="zl-geHBXYKXyuFMlldFD-1" value="" style="whiteSpace=wrap;html=1;align=center;" parent="1" vertex="1">
          <mxGeometry x="-611" y="1110" width="612" height="130" as="geometry" />
        </mxCell>
        <mxCell id="zl-geHBXYKXyuFMlldFD-2" style="edgeStyle=orthogonalEdgeStyle;rounded=0;orthogonalLoop=1;jettySize=auto;html=1;exitX=0.5;exitY=1;exitDx=0;exitDy=0;entryX=0.5;entryY=0;entryDx=0;entryDy=0;" parent="1" source="zl-geHBXYKXyuFMlldFD-5" target="zl-geHBXYKXyuFMlldFD-6" edge="1">
          <mxGeometry relative="1" as="geometry" />
        </mxCell>
        <mxCell id="zl-geHBXYKXyuFMlldFD-3" style="edgeStyle=orthogonalEdgeStyle;rounded=0;orthogonalLoop=1;jettySize=auto;html=1;exitX=0.5;exitY=1;exitDx=0;exitDy=0;entryX=0.5;entryY=0;entryDx=0;entryDy=0;" parent="1" source="zl-geHBXYKXyuFMlldFD-5" target="zl-geHBXYKXyuFMlldFD-7" edge="1">
          <mxGeometry relative="1" as="geometry" />
        </mxCell>
        <mxCell id="zl-geHBXYKXyuFMlldFD-4" style="edgeStyle=orthogonalEdgeStyle;rounded=0;orthogonalLoop=1;jettySize=auto;html=1;exitX=0.5;exitY=1;exitDx=0;exitDy=0;" parent="1" source="zl-geHBXYKXyuFMlldFD-5" target="zl-geHBXYKXyuFMlldFD-8" edge="1">
          <mxGeometry relative="1" as="geometry" />
        </mxCell>
        <mxCell id="zl-geHBXYKXyuFMlldFD-5" value="全链路监控" style="whiteSpace=wrap;html=1;" parent="1" vertex="1">
          <mxGeometry x="-351" y="130" width="120" height="60" as="geometry" />
        </mxCell>
        <mxCell id="zl-geHBXYKXyuFMlldFD-6" value="数据同步" style="whiteSpace=wrap;html=1;" parent="1" vertex="1">
          <mxGeometry x="-645" y="270" width="120" height="60" as="geometry" />
        </mxCell>
        <mxCell id="zl-geHBXYKXyuFMlldFD-7" value="数仓建模" style="whiteSpace=wrap;html=1;" parent="1" vertex="1">
          <mxGeometry x="-351" y="270" width="120" height="60" as="geometry" />
        </mxCell>
        <mxCell id="zl-geHBXYKXyuFMlldFD-8" value="BI" style="whiteSpace=wrap;html=1;" parent="1" vertex="1">
          <mxGeometry x="-15" y="270" width="120" height="60" as="geometry" />
        </mxCell>
        <mxCell id="zl-geHBXYKXyuFMlldFD-9" value="Davinci" style="whiteSpace=wrap;html=1;" parent="1" vertex="1">
          <mxGeometry x="-15" y="440" width="120" height="60" as="geometry" />
        </mxCell>
        <mxCell id="zl-geHBXYKXyuFMlldFD-10" value="标签" style="whiteSpace=wrap;html=1;" parent="1" vertex="1">
          <mxGeometry x="-15" y="535" width="120" height="60" as="geometry" />
        </mxCell>
        <mxCell id="zl-geHBXYKXyuFMlldFD-11" value="API" style="whiteSpace=wrap;html=1;" parent="1" vertex="1">
          <mxGeometry x="-15" y="630" width="120" height="60" as="geometry" />
        </mxCell>
        <mxCell id="zl-geHBXYKXyuFMlldFD-12" value="" style="whiteSpace=wrap;html=1;" parent="1" vertex="1">
          <mxGeometry x="-535" y="440" width="470" height="250" as="geometry" />
        </mxCell>
        <mxCell id="zl-geHBXYKXyuFMlldFD-13" style="edgeStyle=orthogonalEdgeStyle;rounded=0;orthogonalLoop=1;jettySize=auto;html=1;exitX=1;exitY=0.5;exitDx=0;exitDy=0;entryX=0;entryY=0.639;entryDx=0;entryDy=0;entryPerimeter=0;" parent="1" source="zl-geHBXYKXyuFMlldFD-15" target="zl-geHBXYKXyuFMlldFD-19" edge="1">
          <mxGeometry relative="1" as="geometry" />
        </mxCell>
        <mxCell id="zl-geHBXYKXyuFMlldFD-14" style="edgeStyle=orthogonalEdgeStyle;rounded=0;orthogonalLoop=1;jettySize=auto;html=1;exitX=0.978;exitY=0.917;exitDx=0;exitDy=0;entryX=0;entryY=0.5;entryDx=0;entryDy=0;exitPerimeter=0;" parent="1" source="zl-geHBXYKXyuFMlldFD-15" target="zl-geHBXYKXyuFMlldFD-21" edge="1">
          <mxGeometry relative="1" as="geometry" />
        </mxCell>
        <mxCell id="zl-geHBXYKXyuFMlldFD-15" value="ODS" style="whiteSpace=wrap;html=1;" parent="1" vertex="1">
          <mxGeometry x="-525" y="450" width="46" height="230" as="geometry" />
        </mxCell>
        <mxCell id="zl-geHBXYKXyuFMlldFD-16" style="edgeStyle=orthogonalEdgeStyle;rounded=0;orthogonalLoop=1;jettySize=auto;html=1;exitX=1;exitY=0.5;exitDx=0;exitDy=0;" parent="1" source="zl-geHBXYKXyuFMlldFD-17" target="zl-geHBXYKXyuFMlldFD-15" edge="1">
          <mxGeometry relative="1" as="geometry" />
        </mxCell>
        <mxCell id="zl-geHBXYKXyuFMlldFD-17" value="业务从库" style="whiteSpace=wrap;html=1;" parent="1" vertex="1">
          <mxGeometry x="-685" y="440" width="70" height="250" as="geometry" />
        </mxCell>
        <mxCell id="zl-geHBXYKXyuFMlldFD-18" style="edgeStyle=orthogonalEdgeStyle;rounded=0;orthogonalLoop=1;jettySize=auto;html=1;exitX=1;exitY=0.5;exitDx=0;exitDy=0;entryX=0;entryY=0.5;entryDx=0;entryDy=0;" parent="1" source="zl-geHBXYKXyuFMlldFD-19" target="zl-geHBXYKXyuFMlldFD-23" edge="1">
          <mxGeometry relative="1" as="geometry" />
        </mxCell>
        <mxCell id="zl-geHBXYKXyuFMlldFD-19" value="DWD" style="whiteSpace=wrap;html=1;" parent="1" vertex="1">
          <mxGeometry x="-405" y="450" width="50" height="180" as="geometry" />
        </mxCell>
        <mxCell id="zl-geHBXYKXyuFMlldFD-20" style="edgeStyle=orthogonalEdgeStyle;rounded=0;orthogonalLoop=1;jettySize=auto;html=1;exitX=1;exitY=0.5;exitDx=0;exitDy=0;entryX=-0.02;entryY=0.913;entryDx=0;entryDy=0;entryPerimeter=0;" parent="1" source="zl-geHBXYKXyuFMlldFD-21" target="zl-geHBXYKXyuFMlldFD-27" edge="1">
          <mxGeometry relative="1" as="geometry" />
        </mxCell>
        <mxCell id="zl-geHBXYKXyuFMlldFD-21" value="DIM" style="whiteSpace=wrap;html=1;" parent="1" vertex="1">
          <mxGeometry x="-405" y="640" width="180" height="40" as="geometry" />
        </mxCell>
        <mxCell id="zl-geHBXYKXyuFMlldFD-22" style="edgeStyle=orthogonalEdgeStyle;rounded=0;orthogonalLoop=1;jettySize=auto;html=1;exitX=1;exitY=0.5;exitDx=0;exitDy=0;entryX=-0.04;entryY=0.391;entryDx=0;entryDy=0;entryPerimeter=0;" parent="1" source="zl-geHBXYKXyuFMlldFD-23" target="zl-geHBXYKXyuFMlldFD-27" edge="1">
          <mxGeometry relative="1" as="geometry" />
        </mxCell>
        <mxCell id="zl-geHBXYKXyuFMlldFD-23" value="DWS" style="whiteSpace=wrap;html=1;" parent="1" vertex="1">
          <mxGeometry x="-275" y="450" width="50" height="180" as="geometry" />
        </mxCell>
        <mxCell id="zl-geHBXYKXyuFMlldFD-24" style="edgeStyle=orthogonalEdgeStyle;rounded=0;orthogonalLoop=1;jettySize=auto;html=1;exitX=1;exitY=0.5;exitDx=0;exitDy=0;entryX=0;entryY=0.5;entryDx=0;entryDy=0;" parent="1" source="zl-geHBXYKXyuFMlldFD-27" target="zl-geHBXYKXyuFMlldFD-9" edge="1">
          <mxGeometry relative="1" as="geometry" />
        </mxCell>
        <mxCell id="zl-geHBXYKXyuFMlldFD-25" style="edgeStyle=orthogonalEdgeStyle;rounded=0;orthogonalLoop=1;jettySize=auto;html=1;exitX=1;exitY=0.5;exitDx=0;exitDy=0;" parent="1" source="zl-geHBXYKXyuFMlldFD-27" target="zl-geHBXYKXyuFMlldFD-10" edge="1">
          <mxGeometry relative="1" as="geometry" />
        </mxCell>
        <mxCell id="zl-geHBXYKXyuFMlldFD-26" style="edgeStyle=orthogonalEdgeStyle;rounded=0;orthogonalLoop=1;jettySize=auto;html=1;exitX=1;exitY=0.5;exitDx=0;exitDy=0;entryX=0;entryY=0.5;entryDx=0;entryDy=0;" parent="1" source="zl-geHBXYKXyuFMlldFD-27" target="zl-geHBXYKXyuFMlldFD-11" edge="1">
          <mxGeometry relative="1" as="geometry" />
        </mxCell>
        <mxCell id="zl-geHBXYKXyuFMlldFD-27" value="ADS" style="whiteSpace=wrap;html=1;" parent="1" vertex="1">
          <mxGeometry x="-145" y="450" width="50" height="230" as="geometry" />
        </mxCell>
        <mxCell id="zl-geHBXYKXyuFMlldFD-28" value="原子指标" style="whiteSpace=wrap;html=1;" parent="1" vertex="1">
          <mxGeometry x="-375" y="740" width="120" height="60" as="geometry" />
        </mxCell>
        <mxCell id="zl-geHBXYKXyuFMlldFD-29" value="衍生指标" style="whiteSpace=wrap;html=1;" parent="1" vertex="1">
          <mxGeometry x="-195" y="740" width="120" height="60" as="geometry" />
        </mxCell>
        <mxCell id="zl-geHBXYKXyuFMlldFD-30" value="业务指标" style="whiteSpace=wrap;html=1;" parent="1" vertex="1">
          <mxGeometry x="-15" y="740" width="120" height="60" as="geometry" />
        </mxCell>
        <mxCell id="zl-geHBXYKXyuFMlldFD-31" value="" style="endArrow=classic;html=1;" parent="1" edge="1">
          <mxGeometry width="50" height="50" relative="1" as="geometry">
            <mxPoint x="-585" y="710" as="sourcePoint" />
            <mxPoint x="-565" y="570" as="targetPoint" />
          </mxGeometry>
        </mxCell>
        <mxCell id="zl-geHBXYKXyuFMlldFD-32" value="同步校对-&amp;gt;落库&lt;br&gt;【数据量校对，跑空校对】" style="text;html=1;align=center;verticalAlign=middle;resizable=0;points=[];autosize=1;" parent="1" vertex="1">
          <mxGeometry x="-665" y="720" width="160" height="30" as="geometry" />
        </mxCell>
        <mxCell id="zl-geHBXYKXyuFMlldFD-33" value="" style="endArrow=classic;html=1;" parent="1" edge="1">
          <mxGeometry width="50" height="50" relative="1" as="geometry">
            <mxPoint x="-315" y="410" as="sourcePoint" />
            <mxPoint x="-445" y="560" as="targetPoint" />
          </mxGeometry>
        </mxCell>
        <mxCell id="zl-geHBXYKXyuFMlldFD-34" value="" style="endArrow=classic;html=1;" parent="1" edge="1">
          <mxGeometry width="50" height="50" relative="1" as="geometry">
            <mxPoint x="-315" y="410" as="sourcePoint" />
            <mxPoint x="-315.5" y="530" as="targetPoint" />
          </mxGeometry>
        </mxCell>
        <mxCell id="zl-geHBXYKXyuFMlldFD-35" value="" style="endArrow=classic;html=1;" parent="1" edge="1">
          <mxGeometry width="50" height="50" relative="1" as="geometry">
            <mxPoint x="-315" y="410" as="sourcePoint" />
            <mxPoint x="-185" y="530" as="targetPoint" />
          </mxGeometry>
        </mxCell>
        <mxCell id="zl-geHBXYKXyuFMlldFD-36" value="ETL校对-&amp;gt;落库&lt;br&gt;【数据量校对，跑空校对】" style="text;html=1;align=center;verticalAlign=middle;resizable=0;points=[];autosize=1;" parent="1" vertex="1">
          <mxGeometry x="-385" y="375" width="160" height="30" as="geometry" />
        </mxCell>
        <mxCell id="zl-geHBXYKXyuFMlldFD-37" value="" style="endArrow=classic;html=1;" parent="1" edge="1">
          <mxGeometry width="50" height="50" relative="1" as="geometry">
            <mxPoint x="-35" y="425" as="sourcePoint" />
            <mxPoint x="-35" y="560" as="targetPoint" />
          </mxGeometry>
        </mxCell>
        <mxCell id="zl-geHBXYKXyuFMlldFD-38" value="BI监控" style="text;html=1;align=center;verticalAlign=middle;resizable=0;points=[];autosize=1;" parent="1" vertex="1">
          <mxGeometry x="-55" y="390" width="50" height="20" as="geometry" />
        </mxCell>
        <mxCell id="zl-geHBXYKXyuFMlldFD-39" value="1. 数据同步：每次同步完校对贴源层和从库数据量，差异过大和同步为空的告警处理&lt;br&gt;2. 数仓建模： 数仓每一层之间增加数据校对工作，包含数据量差异和跑空差异&lt;br&gt;3. BI层所有产品应用和数仓层的一一映射，存在多对多的情况" style="text;html=1;align=left;verticalAlign=middle;resizable=0;points=[];autosize=1;" parent="1" vertex="1">
          <mxGeometry x="-527" y="840" width="460" height="50" as="geometry" />
        </mxCell>
        <mxCell id="zl-geHBXYKXyuFMlldFD-40" value="" style="edgeStyle=orthogonalEdgeStyle;rounded=0;orthogonalLoop=1;jettySize=auto;html=1;" parent="1" source="zl-geHBXYKXyuFMlldFD-41" target="zl-geHBXYKXyuFMlldFD-42" edge="1">
          <mxGeometry relative="1" as="geometry" />
        </mxCell>
        <mxCell id="zl-geHBXYKXyuFMlldFD-41" value="举例：&lt;br&gt;1. 【向上查询】用户想要看到一张Davinci报表想要知道这张报表在整条链路经过了多少层，用到了那些表(直接或者间接)。(全链路血缘可视化)&lt;br&gt;2. 【向下查询】用户想看看一个业务从库表或者ODS贴源层的表(或其他中间层)，在整个链路中被那些表直接或间接引用。(全链路血缘可视化)&lt;br&gt;3. 【告警与监控】数据同步和数仓建模出错错误需要“分级分类”告警并给出具体错误原因，和相关下游引用到的表和报表。(Davinci展示Tips弹窗)&lt;br&gt;4. 【一键重跑】修复完错误(ETL)之后，触发DWD的这个报错任务，根据血缘关系，依次触发下游所有直接或者间接依赖的任务。(调用Dolphinapi)&lt;br&gt;" style="text;html=1;align=center;verticalAlign=middle;resizable=0;points=[];autosize=1;" parent="1" vertex="1">
          <mxGeometry x="-700" y="910" width="790" height="80" as="geometry" />
        </mxCell>
        <mxCell id="zl-geHBXYKXyuFMlldFD-42" value="第二期：根据元数据+血缘实现字段级别依赖，并结合原子指标，衍生指标，业务指标，将Davinci和数仓打通" style="text;html=1;align=center;verticalAlign=middle;resizable=0;points=[];autosize=1;" parent="1" vertex="1">
          <mxGeometry x="-600" y="1070" width="590" height="20" as="geometry" />
        </mxCell>
        <mxCell id="zl-geHBXYKXyuFMlldFD-43" value="表空间" style="text;html=1;align=center;verticalAlign=middle;resizable=0;points=[];autosize=1;" parent="1" vertex="1">
          <mxGeometry x="-588" y="1140" width="50" height="20" as="geometry" />
        </mxCell>
        <mxCell id="zl-geHBXYKXyuFMlldFD-44" value="表出错率" style="text;html=1;align=center;verticalAlign=middle;resizable=0;points=[];autosize=1;" parent="1" vertex="1">
          <mxGeometry x="-501" y="1140" width="60" height="20" as="geometry" />
        </mxCell>
        <mxCell id="zl-geHBXYKXyuFMlldFD-45" value="用户任务量" style="text;html=1;align=center;verticalAlign=middle;resizable=0;points=[];autosize=1;" parent="1" vertex="1">
          <mxGeometry x="-408" y="1140" width="80" height="20" as="geometry" />
        </mxCell>
        <mxCell id="zl-geHBXYKXyuFMlldFD-46" value="用户任务出错率" style="text;html=1;align=center;verticalAlign=middle;resizable=0;points=[];autosize=1;" parent="1" vertex="1">
          <mxGeometry x="-295" y="1140" width="100" height="20" as="geometry" />
        </mxCell>
        <mxCell id="zl-geHBXYKXyuFMlldFD-47" value="重复字段" style="text;html=1;align=center;verticalAlign=middle;resizable=0;points=[];autosize=1;" parent="1" vertex="1">
          <mxGeometry x="-162" y="1140" width="60" height="20" as="geometry" />
        </mxCell>
        <mxCell id="zl-geHBXYKXyuFMlldFD-48" value="慢查询" style="text;html=1;align=center;verticalAlign=middle;resizable=0;points=[];autosize=1;" parent="1" vertex="1">
          <mxGeometry x="-75" y="1140" width="50" height="20" as="geometry" />
        </mxCell>
        <mxCell id="zl-geHBXYKXyuFMlldFD-49" value="同层依赖" style="text;html=1;align=center;verticalAlign=middle;resizable=0;points=[];autosize=1;" parent="1" vertex="1">
          <mxGeometry x="-398" y="1200" width="60" height="20" as="geometry" />
        </mxCell>
        <mxCell id="zl-geHBXYKXyuFMlldFD-50" value="跨层依赖" style="text;html=1;align=center;verticalAlign=middle;resizable=0;points=[];autosize=1;" parent="1" vertex="1">
          <mxGeometry x="-588" y="1200" width="60" height="20" as="geometry" />
        </mxCell>
        <mxCell id="zl-geHBXYKXyuFMlldFD-51" value="无依赖" style="text;html=1;align=center;verticalAlign=middle;resizable=0;points=[];autosize=1;" parent="1" vertex="1">
          <mxGeometry x="-491" y="1200" width="50" height="20" as="geometry" />
        </mxCell>
        <mxCell id="zl-geHBXYKXyuFMlldFD-52" value="命名规范" style="text;html=1;align=center;verticalAlign=middle;resizable=0;points=[];autosize=1;" parent="1" vertex="1">
          <mxGeometry x="-75" y="1200" width="60" height="20" as="geometry" />
        </mxCell>
        <mxCell id="zl-geHBXYKXyuFMlldFD-53" value="抽样质量校验" style="text;html=1;align=center;verticalAlign=middle;resizable=0;points=[];autosize=1;" parent="1" vertex="1">
          <mxGeometry x="-285" y="1200" width="90" height="20" as="geometry" />
        </mxCell>
        <mxCell id="zl-geHBXYKXyuFMlldFD-54" value="分类分级落盘" style="text;html=1;align=center;verticalAlign=middle;resizable=0;points=[];autosize=1;" parent="1" vertex="1">
          <mxGeometry x="-177" y="1200" width="90" height="20" as="geometry" />
        </mxCell>
      </root>
    </mxGraphModel>
  </diagram>
</mxfile>
